<?xml version="1.0" encoding="UTF-8"?>
<svg xmlns="http://www.w3.org/2000/svg" width="276.742" height="38.926" viewBox="0 0 276.742 38.926">
  <g id="Group_3402" data-name="Group 3402" transform="translate(17244 -7784.008)">
    <path id="Path_11594" data-name="Path 11594" d="M24.572,16.849c-3.457,2.568-7.707,5.723-9.115,6.753a.889.889,0,0,1-1.154.075A22.2,22.2,0,0,0,11.47,22.1a2.838,2.838,0,0,0-1.844-.174A9.569,9.569,0,0,0,7.6,23.2a3.648,3.648,0,0,0,.249.279c1.787,1.5,3.569,3,5.364,4.484a2.519,2.519,0,0,0,3.077.1c3.022-2.175,6.009-4.4,9.07-6.522,0,2.389-.005,4.776-.06,7.163a4.209,4.209,0,0,1-4.142,4.1c-4.214.071-8.431.091-12.645.014a4.349,4.349,0,0,1-3.192-1.352l-.05-.056c-.058-.065-.114-.131-.167-.2l-.074-.1c-.046-.063-.092-.127-.136-.194-.024-.037-.046-.077-.07-.115-.04-.066-.08-.13-.117-.2a4.212,4.212,0,0,1-.5-1.915c-.071-4.214-.091-8.43-.014-12.644,0-.113.012-.221.021-.33h0c0-.08.014-.158.022-.236a4.265,4.265,0,0,1,4.113-3.789c.551-.013,1.1-.018,1.653-.026l.344,0,.009,0c3.412-.043,7.587-.016,11-.026.488,0,.978.019,1.464-.012a1.994,1.994,0,0,0,2.039-2.066A2.057,2.057,0,0,0,22.7,7.52C21.533,7.5,20.368,7.51,19.2,7.513l.007,0H7.99l-.448.074c-.026.007-.053.01-.079.016s-.05.016-.075.025A8.642,8.642,0,0,0,1.3,11.649l-.056.091c-.091.153-.176.31-.257.469-.035.068-.072.136-.1.2-.06.125-.114.253-.167.381-.043.1-.088.2-.127.31s-.068.2-.1.3c-.045.136-.091.27-.129.408,0,.011-.008.023-.011.034l0,0a8.629,8.629,0,0,0-.3,2.145c-.057,4.188-.066,8.378,0,12.566a8.722,8.722,0,0,0,.2,1.72h0c.008.034.02.068.029.1a8.461,8.461,0,0,0,2.393,4.212l.056.051c.107.1.217.2.329.295a8.351,8.351,0,0,0,2.76,1.58q.2.071.414.133l.137.037a8.989,8.989,0,0,0,2.393.328h.322c0-.011-.007-.022-.011-.033,3.985.05,7.973.056,11.959-.008a8.6,8.6,0,0,0,8.458-8.705q.008-4.394,0-8.788c0-.053,0-.107,0-.16h0a3.079,3.079,0,0,0-4.914-2.472" transform="translate(-17244 7776.568)" fill="#8cc63e"></path>
    <path id="Union_53" data-name="Union 53" d="M-322,611.617V601.471c0-6.079,3.578-9,8.864-9H-307a1.839,1.839,0,0,1,1.839,1.839A1.839,1.839,0,0,1-307,596.148h-5.826v-.012s0,.008,0,.012c-.1,0-.2-.011-.3-.011-2.959,0-4.917,1.543-4.917,5.333v10.146a1.979,1.979,0,0,1-1.979,1.978A1.979,1.979,0,0,1-322,611.617Z" transform="translate(-16887.723 7199.995)" fill="#8cc63e" stroke="rgba(0,0,0,0)" stroke-miterlimit="10" stroke-width="1"></path>
    <path id="Union_54" data-name="Union 54" d="M-322,611.617V601.471c0-6.079,3.578-9,8.864-9H-307a1.839,1.839,0,0,1,1.839,1.839A1.839,1.839,0,0,1-307,596.148h-5.826v-.012s0,.008,0,.012c-.1,0-.2-.011-.3-.011-2.959,0-4.917,1.543-4.917,5.333v10.146a1.979,1.979,0,0,1-1.979,1.978A1.979,1.979,0,0,1-322,611.617Z" transform="translate(-16745.262 7199.964)" fill="#1a1818" stroke="rgba(0,0,0,0)" stroke-miterlimit="10" stroke-width="1"></path>
    <path id="Path_11596" data-name="Path 11596" d="M80.774,18.52c-6.5,0-11.083,4.583-11.083,10.833s4.584,10.833,11.083,10.833a11.084,11.084,0,0,0,8.016-3.109,1.876,1.876,0,0,0-1.353-3.182,1.84,1.84,0,0,0-1.385.613,6.6,6.6,0,0,1-5.278,2.012c-3.583,0-6.333-2.042-6.916-5.708H90.315a1.458,1.458,0,0,0,1.458-1.458c0-6.25-4.5-10.833-11-10.833m-6.791,8.75a6.527,6.527,0,0,1,6.791-5.083c3.333,0,6.041,1.792,6.833,5.083Z" transform="translate(-17260.594 7773.946)" fill="#8cc63e"></path>
    <path id="Path_11597" data-name="Path 11597" d="M112.927,18.52c-6.5,0-11.083,4.583-11.083,10.833s4.584,10.833,11.083,10.833a11.084,11.084,0,0,0,8.016-3.109,1.876,1.876,0,0,0-1.353-3.182,1.84,1.84,0,0,0-1.385.613,6.6,6.6,0,0,1-5.278,2.012c-3.583,0-6.333-2.042-6.916-5.708h16.458a1.458,1.458,0,0,0,1.458-1.458c0-6.25-4.5-10.833-11-10.833m-6.791,8.75a6.527,6.527,0,0,1,6.791-5.083c3.333,0,6.041,1.792,6.833,5.083Z" transform="translate(-17268.25 7773.946)" fill="#8cc63e"></path>
    <path id="Path_11598" data-name="Path 11598" d="M145.258,18.52c-6.083,0-10.166,3.542-10.166,10.417v8.728a1.979,1.979,0,0,0,3.958,0V28.937c0-4.459,2.458-6.75,6.208-6.75s6.208,2.292,6.208,6.75v8.728a1.979,1.979,0,0,0,3.958,0V28.937c0-6.916-4.083-10.417-10.166-10.417" transform="translate(-17276.166 7773.946)" fill="#8cc63e"></path>
    <path id="Path_11599" data-name="Path 11599" d="M184.966,32.186a1.894,1.894,0,0,0-1.657.939,7.172,7.172,0,0,1-13.268-3.773,7.172,7.172,0,0,1,13.268-3.773,1.893,1.893,0,0,0,1.657.94,1.915,1.915,0,0,0,1.682-2.843,10.609,10.609,0,0,0-9.524-5.157c-6.5,0-11.082,4.584-11.082,10.833s4.583,10.833,11.082,10.833a10.608,10.608,0,0,0,9.524-5.158,1.914,1.914,0,0,0-1.682-2.842" transform="translate(-17283.535 7773.946)" fill="#1a1818"></path>
    <path id="Path_11600" data-name="Path 11600" d="M208.881,18.52c-6.541,0-11.124,4.542-11.124,11a10.249,10.249,0,0,0,10.458,10.666,8.2,8.2,0,0,0,8-5.041v2.688a1.813,1.813,0,0,0,3.625,0V29.519c0-6.583-4.5-11-10.958-11m-.041,18a6.8,6.8,0,0,1-7.083-7.166,7.083,7.083,0,1,1,14.166,0,6.8,6.8,0,0,1-7.083,7.166" transform="translate(-17291.088 7773.946)" fill="#1a1818"></path>
    <path id="Path_11602" data-name="Path 11602" d="M277.9,7.419A1.979,1.979,0,0,0,275.921,9.4V20.043a8.485,8.485,0,0,0-7.666-4.166A10.26,10.26,0,0,0,257.8,26.584c0,6.458,4.583,10.958,11.124,10.958,6.374,0,10.958-4.291,10.958-11V9.4A1.979,1.979,0,0,0,277.9,7.419m-9.02,26.457a6.8,6.8,0,0,1-7.083-7.166,7.063,7.063,0,1,1,14.125,0,6.792,6.792,0,0,1-7.041,7.166" transform="translate(-17305.383 7776.589)" fill="#1a1818"></path>
    <path id="Path_11603" data-name="Path 11603" d="M292.709,39.729a2.754,2.754,0,1,0,2.753,2.753,2.675,2.675,0,0,0-2.753-2.753" transform="translate(-17313.041 7768.896)" fill="#1a1818"></path>
    <path id="Path_11604" data-name="Path 11604" d="M312.006,18.48c-6.509,0-11.1,4.59-11.1,10.848,0,7.01,5.09,10.682,10.431,10.682a8.466,8.466,0,0,0,7.761-4.256v2.378c0,5.383-2.8,7.386-7.01,7.386-2.593,0-4.751-.778-5.911-2.52a1.923,1.923,0,0,0-1.589-.9,1.859,1.859,0,0,0-1.531,2.919c1.938,2.718,5.167,3.965,9.031,3.965,6.092,0,10.932-3.086,10.932-11.015v-8.47c0-6.634-4.507-11.015-11.015-11.015m0,17.816c-4.256,0-7.093-2.8-7.093-6.968a7.094,7.094,0,1,1,14.186,0c0,4.173-2.837,6.968-7.093,6.968" transform="translate(-17315.648 7773.956)" fill="#1a1818"></path>
    <path id="Path_11605" data-name="Path 11605" d="M345.3,18.481c-6.509,0-11.1,4.589-11.1,10.848s4.59,10.849,11.1,10.849a11.1,11.1,0,0,0,8.021-3.109,1.88,1.88,0,1,0-2.757-2.554,6.62,6.62,0,0,1-5.264,1.99c-3.589,0-6.342-2.044-6.926-5.716h16.482a1.46,1.46,0,0,0,1.46-1.46c0-6.259-4.507-10.848-11.015-10.848m-6.8,8.762a6.538,6.538,0,0,1,6.8-5.09c3.338,0,6.049,1.794,6.843,5.09Z" transform="translate(-17323.576 7773.956)" fill="#1a1818"></path>
  </g>
</svg>
